<svg width="128" height="28" viewBox="0 0 128 28" fill="none" xmlns="http://www.w3.org/2000/svg">
<mask id="path-1-inside-1_179_2122" fill="white">
<path d="M18.6031 19.2289C16.5011 21.311 13.9427 22.352 10.9279 22.352C7.91308 22.352 5.35468 21.311 3.25265 19.2289C1.15062 17.1469 0.0996094 14.5785 0.0996094 11.5237C0.0996094 8.46895 1.15062 5.90054 3.25265 3.81851C5.35468 1.73647 7.91308 0.695446 10.9279 0.695446C13.9427 0.695446 16.5011 1.73647 18.6031 3.81851C20.7051 5.90054 21.7561 8.46895 21.7561 11.5237C21.7561 14.5785 20.7051 17.1469 18.6031 19.2289ZM6.5989 15.9859C7.75985 17.1352 9.20228 17.7115 10.9279 17.7115C12.6535 17.7115 14.0959 17.1369 15.2569 15.9859C16.4178 14.835 16.9974 13.3476 16.9974 11.5237C16.9974 9.69818 16.4178 8.21078 15.2569 7.06149C14.0959 5.9122 12.6535 5.3359 10.9279 5.3359C9.20228 5.3359 7.75985 5.91054 6.5989 7.06149C5.43796 8.21244 4.85832 9.69985 4.85832 11.5237C4.85832 13.3476 5.43796 14.8367 6.5989 15.9859ZM38.5674 21.9356H33.5089L28.7485 15.3747V21.9356H24.2862V1.11019H28.7485V13.5758L33.2107 7.05982H38.4175L33.0025 14.4969L38.5657 21.9339L38.5674 21.9356ZM43.2978 16.2824C43.8141 17.6716 45.0034 18.3645 46.8672 18.3645C48.0765 18.3645 49.0292 17.988 49.7238 17.2335L53.2932 19.2856C51.8258 21.3276 49.6638 22.3503 46.8072 22.3503C44.3088 22.3503 42.31 21.6075 40.8126 20.1184C39.3152 18.631 38.5674 16.7571 38.5674 14.4952C38.5674 12.2533 39.3069 10.3844 40.7843 8.88702C42.2617 7.38962 44.1606 6.64009 46.4808 6.64009C48.6428 6.64009 50.4433 7.38962 51.8808 8.88702C53.3182 10.3844 54.0378 12.2533 54.0378 14.4952C54.0378 15.1298 53.9778 15.7244 53.8595 16.2808H43.2978V16.2824ZM43.2078 12.9512H49.6038C49.1675 11.3838 48.1164 10.601 46.4508 10.601C44.7252 10.601 43.6442 11.3838 43.2078 12.9512ZM65.3424 7.05982H70.1028L65.0143 21.4892C64.1814 23.8294 63.0855 25.505 61.7263 26.5177C60.3672 27.5288 58.6366 27.9852 56.5345 27.8852V23.7195C57.5656 23.7195 58.3601 23.5362 58.9147 23.1698C59.4694 22.8034 59.9158 22.1638 60.2539 21.251L54.3326 7.05982H59.2412L62.5441 16.1642L65.3407 7.05982H65.3424ZM101.43 20.0767C99.9026 21.5941 98.0387 22.352 95.8368 22.352C93.6348 22.352 91.771 21.5941 90.2436 20.0767C88.7162 18.5593 87.9533 16.7005 87.9533 14.4985C87.9533 12.2966 88.7162 10.4377 90.2436 8.92033C91.771 7.40294 93.6348 6.64508 95.8368 6.64508C98.0387 6.64508 99.9026 7.40294 101.43 8.92033C102.957 10.4377 103.72 12.2966 103.72 14.4985C103.72 16.7005 102.956 18.5593 101.43 20.0767ZM93.3966 17.027C94.0512 17.6816 94.864 18.008 95.8368 18.008C96.8095 18.008 97.6223 17.6816 98.2769 17.027C98.9315 16.3724 99.258 15.5296 99.258 14.4985C99.258 13.4675 98.9315 12.6247 98.2769 11.9701C97.6223 11.3155 96.8095 10.989 95.8368 10.989C94.864 10.989 94.0512 11.3155 93.3966 11.9701C92.742 12.6247 92.4156 13.4675 92.4156 14.4985C92.4156 15.5296 92.742 16.3724 93.3966 17.027ZM110.176 11.4038C110.176 11.7019 110.429 11.9435 110.934 12.1333C111.44 12.3216 112.05 12.5098 112.763 12.698C113.477 12.8862 114.19 13.1294 114.905 13.4275C115.619 13.7257 116.229 14.2154 116.734 14.9C117.24 15.5845 117.492 16.4423 117.492 17.4734C117.492 19.0807 116.897 20.2949 115.706 21.1178C114.517 21.9406 113.048 22.352 111.304 22.352C108.169 22.352 106.037 21.1727 104.908 18.8125L108.775 16.6106C109.172 17.7815 110.015 18.3661 111.304 18.3661C112.375 18.3661 112.911 18.058 112.911 17.4434C112.911 17.1469 112.658 16.8987 112.153 16.7005C111.647 16.5023 111.037 16.3091 110.324 16.1209C109.61 15.9326 108.897 15.6845 108.182 15.3763C107.468 15.0682 106.858 14.5885 106.354 13.9339C105.847 13.2793 105.596 12.4765 105.596 11.5237C105.596 9.97634 106.155 8.77709 107.276 7.92429C108.397 7.07148 109.781 6.64508 111.427 6.64508C112.656 6.64508 113.777 6.91824 114.79 7.46291C115.801 8.00757 116.616 8.79708 117.23 9.8281L113.423 11.8802C112.946 11.0074 112.282 10.571 111.429 10.571C110.596 10.571 110.18 10.8491 110.18 11.4038H110.176ZM127.997 11.3438H124.932V16.6106C124.932 17.2052 125.17 17.5816 125.647 17.7415C126.123 17.8998 126.906 17.9497 127.997 17.8898V21.9356C125.16 22.2337 123.196 21.9606 122.105 21.1178C121.014 20.2749 120.47 18.7725 120.47 16.6106V11.3438H118.09V7.05982H120.47V4.23325L124.932 2.89408V7.05982H127.997V11.3438ZM79.1755 1.10852C81.2192 1.10852 82.9431 1.80309 84.3522 3.19056C85.7597 4.5797 86.4643 6.26532 86.4643 8.24742C86.4643 10.2312 85.7597 11.9168 84.3522 13.3059C82.9431 14.6951 81.2192 15.388 79.1755 15.388H76.0524V21.9339H71.292V1.10852H79.1755ZM79.1755 10.9258C79.9083 10.9258 80.5146 10.6676 80.9893 10.1529C81.4657 9.63656 81.7039 9.00195 81.7039 8.24908C81.7039 7.49455 81.4657 6.85995 80.9893 6.34527C80.513 5.83059 79.9083 5.57241 79.1755 5.57241H76.0524V10.9274H79.1755V10.9258Z"/>
</mask>
<path d="M18.6031 19.2289C16.5011 21.311 13.9427 22.352 10.9279 22.352C7.91308 22.352 5.35468 21.311 3.25265 19.2289C1.15062 17.1469 0.0996094 14.5785 0.0996094 11.5237C0.0996094 8.46895 1.15062 5.90054 3.25265 3.81851C5.35468 1.73647 7.91308 0.695446 10.9279 0.695446C13.9427 0.695446 16.5011 1.73647 18.6031 3.81851C20.7051 5.90054 21.7561 8.46895 21.7561 11.5237C21.7561 14.5785 20.7051 17.1469 18.6031 19.2289ZM6.5989 15.9859C7.75985 17.1352 9.20228 17.7115 10.9279 17.7115C12.6535 17.7115 14.0959 17.1369 15.2569 15.9859C16.4178 14.835 16.9974 13.3476 16.9974 11.5237C16.9974 9.69818 16.4178 8.21078 15.2569 7.06149C14.0959 5.9122 12.6535 5.3359 10.9279 5.3359C9.20228 5.3359 7.75985 5.91054 6.5989 7.06149C5.43796 8.21244 4.85832 9.69985 4.85832 11.5237C4.85832 13.3476 5.43796 14.8367 6.5989 15.9859ZM38.5674 21.9356H33.5089L28.7485 15.3747V21.9356H24.2862V1.11019H28.7485V13.5758L33.2107 7.05982H38.4175L33.0025 14.4969L38.5657 21.9339L38.5674 21.9356ZM43.2978 16.2824C43.8141 17.6716 45.0034 18.3645 46.8672 18.3645C48.0765 18.3645 49.0292 17.988 49.7238 17.2335L53.2932 19.2856C51.8258 21.3276 49.6638 22.3503 46.8072 22.3503C44.3088 22.3503 42.31 21.6075 40.8126 20.1184C39.3152 18.631 38.5674 16.7571 38.5674 14.4952C38.5674 12.2533 39.3069 10.3844 40.7843 8.88702C42.2617 7.38962 44.1606 6.64009 46.4808 6.64009C48.6428 6.64009 50.4433 7.38962 51.8808 8.88702C53.3182 10.3844 54.0378 12.2533 54.0378 14.4952C54.0378 15.1298 53.9778 15.7244 53.8595 16.2808H43.2978V16.2824ZM43.2078 12.9512H49.6038C49.1675 11.3838 48.1164 10.601 46.4508 10.601C44.7252 10.601 43.6442 11.3838 43.2078 12.9512ZM65.3424 7.05982H70.1028L65.0143 21.4892C64.1814 23.8294 63.0855 25.505 61.7263 26.5177C60.3672 27.5288 58.6366 27.9852 56.5345 27.8852V23.7195C57.5656 23.7195 58.3601 23.5362 58.9147 23.1698C59.4694 22.8034 59.9158 22.1638 60.2539 21.251L54.3326 7.05982H59.2412L62.5441 16.1642L65.3407 7.05982H65.3424ZM101.43 20.0767C99.9026 21.5941 98.0387 22.352 95.8368 22.352C93.6348 22.352 91.771 21.5941 90.2436 20.0767C88.7162 18.5593 87.9533 16.7005 87.9533 14.4985C87.9533 12.2966 88.7162 10.4377 90.2436 8.92033C91.771 7.40294 93.6348 6.64508 95.8368 6.64508C98.0387 6.64508 99.9026 7.40294 101.43 8.92033C102.957 10.4377 103.72 12.2966 103.72 14.4985C103.72 16.7005 102.956 18.5593 101.43 20.0767ZM93.3966 17.027C94.0512 17.6816 94.864 18.008 95.8368 18.008C96.8095 18.008 97.6223 17.6816 98.2769 17.027C98.9315 16.3724 99.258 15.5296 99.258 14.4985C99.258 13.4675 98.9315 12.6247 98.2769 11.9701C97.6223 11.3155 96.8095 10.989 95.8368 10.989C94.864 10.989 94.0512 11.3155 93.3966 11.9701C92.742 12.6247 92.4156 13.4675 92.4156 14.4985C92.4156 15.5296 92.742 16.3724 93.3966 17.027ZM110.176 11.4038C110.176 11.7019 110.429 11.9435 110.934 12.1333C111.44 12.3216 112.05 12.5098 112.763 12.698C113.477 12.8862 114.19 13.1294 114.905 13.4275C115.619 13.7257 116.229 14.2154 116.734 14.9C117.24 15.5845 117.492 16.4423 117.492 17.4734C117.492 19.0807 116.897 20.2949 115.706 21.1178C114.517 21.9406 113.048 22.352 111.304 22.352C108.169 22.352 106.037 21.1727 104.908 18.8125L108.775 16.6106C109.172 17.7815 110.015 18.3661 111.304 18.3661C112.375 18.3661 112.911 18.058 112.911 17.4434C112.911 17.1469 112.658 16.8987 112.153 16.7005C111.647 16.5023 111.037 16.3091 110.324 16.1209C109.61 15.9326 108.897 15.6845 108.182 15.3763C107.468 15.0682 106.858 14.5885 106.354 13.9339C105.847 13.2793 105.596 12.4765 105.596 11.5237C105.596 9.97634 106.155 8.77709 107.276 7.92429C108.397 7.07148 109.781 6.64508 111.427 6.64508C112.656 6.64508 113.777 6.91824 114.79 7.46291C115.801 8.00757 116.616 8.79708 117.23 9.8281L113.423 11.8802C112.946 11.0074 112.282 10.571 111.429 10.571C110.596 10.571 110.18 10.8491 110.18 11.4038H110.176ZM127.997 11.3438H124.932V16.6106C124.932 17.2052 125.17 17.5816 125.647 17.7415C126.123 17.8998 126.906 17.9497 127.997 17.8898V21.9356C125.16 22.2337 123.196 21.9606 122.105 21.1178C121.014 20.2749 120.47 18.7725 120.47 16.6106V11.3438H118.09V7.05982H120.47V4.23325L124.932 2.89408V7.05982H127.997V11.3438ZM79.1755 1.10852C81.2192 1.10852 82.9431 1.80309 84.3522 3.19056C85.7597 4.5797 86.4643 6.26532 86.4643 8.24742C86.4643 10.2312 85.7597 11.9168 84.3522 13.3059C82.9431 14.6951 81.2192 15.388 79.1755 15.388H76.0524V21.9339H71.292V1.10852H79.1755ZM79.1755 10.9258C79.9083 10.9258 80.5146 10.6676 80.9893 10.1529C81.4657 9.63656 81.7039 9.00195 81.7039 8.24908C81.7039 7.49455 81.4657 6.85995 80.9893 6.34527C80.513 5.83059 79.9083 5.57241 79.1755 5.57241H76.0524V10.9274H79.1755V10.9258Z" fill="#2B2A29" stroke="black" stroke-width="2" mask="url(#path-1-inside-1_179_2122)"/>
</svg>
