<svg width="26" height="26" viewBox="0 0 26 26" fill="none" xmlns="http://www.w3.org/2000/svg">
<path d="M13 22.75C18.3848 22.75 22.75 18.3848 22.75 13C22.75 7.61522 18.3848 3.25 13 3.25C7.61522 3.25 3.25 7.61522 3.25 13C3.25 18.3848 7.61522 22.75 13 22.75Z" stroke="#1F2428" stroke-linecap="round" stroke-linejoin="round"/>
<path d="M21.7509 17.3035L16.2375 13.9124C16.1408 13.853 16.0328 13.8145 15.9204 13.7993L13.6029 13.4869C13.4288 13.4634 13.2519 13.497 13.0985 13.5825C12.9452 13.6681 12.8237 13.801 12.7522 13.9614L11.3609 17.0832C11.2962 17.2284 11.2755 17.3894 11.3014 17.5462C11.3272 17.703 11.3985 17.8488 11.5064 17.9655L13.4158 20.0308C13.5024 20.1244 13.5657 20.2371 13.6006 20.3597C13.6355 20.4823 13.6411 20.6115 13.6169 20.7367L13.228 22.7472" stroke="#1F2428" stroke-linecap="round" stroke-linejoin="round"/>
<path d="M6.59659 5.64746L5.68819 7.79548C5.60719 7.98701 5.60272 8.2023 5.67568 8.39703L6.84272 11.5118C6.89051 11.6393 6.9696 11.7528 7.07271 11.8418C7.17583 11.9308 7.29967 11.9924 7.43283 12.021L9.60931 12.4888C9.73008 12.5148 9.84334 12.5679 9.94048 12.6443C10.0376 12.7206 10.1161 12.818 10.1699 12.9292L10.5564 13.7277C10.6229 13.8651 10.7268 13.981 10.8562 14.0621C10.9855 14.1432 11.1351 14.1862 11.2877 14.1862H12.652" stroke="#1F2428" stroke-linecap="round" stroke-linejoin="round"/>
<path d="M15.4842 3.56982L16.4322 5.26779C16.5218 5.4283 16.5543 5.61446 16.5244 5.79586C16.4946 5.97725 16.4041 6.14316 16.2677 6.26647L13.5346 8.73825C13.4882 8.7802 13.4371 8.81665 13.3824 8.84689L12.1391 9.53348C12.0188 9.5999 11.8837 9.63473 11.7463 9.63473H9.5784C9.41853 9.63473 9.26221 9.68189 9.12902 9.77031C8.99583 9.85874 8.89168 9.98448 8.82962 10.1318L7.98389 12.1395" stroke="#1F2428" stroke-linecap="round" stroke-linejoin="round"/>
</svg>
